PathFileType	4	(X/Y/Z)	11_1_21_p0_0-398.trc
DataRate	CameraRate	NumFrames	NumMarkers	Units	OrigDataRate	OrigDataStartFrame	OrigNumFrames
54.0	54.0	5	27	m	54.0	199	399
Frame#	Time	RHip			RKnee			RAnkle			RBigToe			RSmallToe			RHeel			LHip			LKnee			LAnkle			LBigToe			LSmallToe			LHeel			Neck			Head			Nose			RShoulder			RElbow			RWrist			RThumb			RIndex			RPinky			LShoulder			LElbow			LWrist			LThumb			LIndex			LPinky			
		X1	Y1	Z1	X2	Y2	Z2	X3	Y3	Z3	X4	Y4	Z4	X5	Y5	Z5	X6	Y6	Z6	X7	Y7	Z7	X8	Y8	Z8	X9	Y9	Z9	X10	Y10	Z10	X11	Y11	Z11	X12	Y12	Z12	X13	Y13	Z13	X14	Y14	Z14	X15	Y15	Z15	X16	Y16	Z16	X17	Y17	Z17	X18	Y18	Z18	X19	Y19	Z19	X20	Y20	Z20	X21	Y21	Z21	X22	Y22	Z22	X23	Y23	Z23	X24	Y24	Z24	X25	Y25	Z25	X26	Y26	Z26	X27	Y27	Z27	
199	3.685185185185185	0.3667723177283558	0.7045442862782575	0.7080942416316652	0.36092688825848224	0.6188282732930073	1.0371870618135268	0.363428392278315	0.7114451441136932	1.4688888480930078	0.3510710177100927	0.4902489955086708	1.424998599079911	0.40818707491432366	0.5420391726008699	1.4415447651155164	0.3348467101246619	0.8314102222439917	1.5614260720392774	0.17704100463016495	0.7445554165433237	0.7251430545628657	0.173605856211822	0.6429403093891081	1.0732879532377086	0.18822379920726387	0.7063586604970645	1.45693386645844	0.20191824711737574	0.4979921420674511	1.4311664258201182	0.15182816185503634	0.5526826832715955	1.4364463562610084	0.19143069031939997	0.7561615947566741	1.5081650275407201	0.29232121596072763	0.49550036445377715	0.2432862661817995	0.31801186498731715	0.3586386816722715	-0.01792072102213993	0.3170102433067553	0.32257797843255087	0.13699867789556974	0.44686328762793	0.5213581294786469	0.29059503337861936	0.45885515513041214	0.6539965323621745	0.5375464128085425	0.40004854855892313	0.43425514528488024	0.5782139233050371	0.3851920826773953	0.24325945012111594	0.5788753186049552	0.3814151709325391	0.24367674033020914	0.5840841139860089	0.40828019284708356	0.3359074256312169	0.6191086453142409	0.1520394672377691	0.48731675249619744	0.2857991601168737	0.12223500240076779	0.6083313652533059	0.5327103575952133	0.2507548358404167	0.3876591491529129	0.5708470847895492	0.3070366034098044	0.24189114013169793	0.5532248097742615	0.29193806585716003	0.22469614252855932	0.5761656779915026	0.2681160338899215	0.2947843506369765	0.614944459175419
200	3.7037037037037037	0.36308943053402737	0.7017690032774563	0.7118949068973965	0.36023502509258426	0.6359144910970573	1.057530789043928	0.36349033854885027	0.7117161677419492	1.46908424035803	0.35172152611421403	0.4933527582503411	1.4304733535512173	0.40798187587982704	0.5430126888241569	1.4420740840953623	0.3349287217642114	0.8315797206640958	1.5615954542038881	0.17336711949089698	0.7386706899329586	0.728028659852255	0.17299963607594035	0.6403939280050758	1.0714926268644636	0.18819743203371328	0.7059631414020403	1.456695497767902	0.20195471210965132	0.49793669732547424	1.4310381155273428	0.15030933849105285	0.5395124360149599	1.4294347913423053	0.19330658674165305	0.7681200359851509	1.514132885135811	0.2922880742417361	0.495506452405605	0.24326801974376533	0.3179765574742841	0.35871617632673863	-0.017988237592016704	0.3170568741520762	0.32294910925733517	0.13706062123694782	0.44406590805508817	0.5095648832286629	0.2890102925351395	0.45914124812881457	0.6532244535721543	0.533542747084304	0.4006178590055963	0.42074059478358533	0.5827637455251735	0.3854132187872269	0.24457290691279238	0.587331776770633	0.38102085315667267	0.24438664159238843	0.588864277519836	0.3948317323341611	0.33841033696568806	0.6244601025593151	0.15198477902355792	0.48744396390923594	0.28587628628954753	0.12824435459538658	0.5951164013710699	0.5296619301328332	0.2533883042241121	0.37751819615658816	0.5724830395563846	0.3122934205963262	0.24394693275894846	0.5833405367618681	0.2958008483143457	0.20417074314340186	0.5820312020547269	0.26315864694254476	0.26031019150184914	0.6189791174671667
201	3.7222222222222223	0.3630321945542538	0.7014828857192212	0.7116524645703973	0.366822859785485	0.6199588012944617	1.050073647892196	0.3633768466556295	0.7117465723667065	1.468927283146856	0.34940488244381046	0.4809827028576477	1.4240019486784774	0.40843393940100753	0.5428465800130895	1.44190981612151	0.33461539538104035	0.8315328218637638	1.5610927307327986	0.17875959712000447	0.7239518417423967	0.7278849388213747	0.1683924797657573	0.6383797113130988	1.0754187465725862	0.1882265394814267	0.7062793010483066	1.4568152691865985	0.202029831488982	0.49773137467015777	1.4308994946066753	0.1519186044249124	0.5523036028905793	1.4361846886626792	0.19323216251863795	0.7678716432677399	1.513873678052722	0.2926963785798094	0.49667977722784046	0.2472134589463131	0.31782693744493584	0.3587244152634536	-0.01796959400342562	0.3172733255710486	0.3233331662128579	0.14007093209154658	0.44447642515497693	0.5091719443916528	0.29309754917345116	0.4522506643385962	0.6378621304419096	0.5349076119181951	0.39339499778850356	0.4197541250979618	0.587993538590548	0.37958259013602436	0.23460854059904993	0.5861005761846093	0.3778522719782542	0.2453926888037077	0.5968809076354447	0.38797881533921846	0.32325809533753747	0.6246670540556347	0.15196279949699082	0.4872202857559629	0.29292554089763734	0.12803891133569745	0.5947435581829726	0.5335455105374197	0.2587503197253035	0.3657384930806558	0.5757580670722187	0.3312398606358241	0.17584833267639544	0.5704806534167165	0.3160809971162336	0.16164502697085162	0.5785531296664453	0.27076119027896145	0.22443965765002602	0.6132788307681711
202	3.740740740740741	0.3681442332485938	0.6862878613521316	0.7074709410524388	0.36284244262927645	0.6070702661918904	1.0501720105882426	0.35233783276574815	0.723515621890051	1.4716606406097539	0.3486380061287792	0.479757379814646	1.4198785776344036	0.4074760063343316	0.5411347690462126	1.4374304593709155	0.3345127910514147	0.831924735978463	1.5613714519167912	0.17882381329695823	0.7237024725190342	0.7285125955950216	0.16832082860368344	0.6384382687783414	1.0755637808170453	0.18426668755397282	0.7033222791895785	1.4557091262464112	0.20293705663101896	0.4995690855138343	1.435876922194878	0.15270203634202414	0.5505073659634515	1.440147066955324	0.19357961990216388	0.7684939609747105	1.5142961999564302	0.29246218174717	0.4966142067625929	0.2505482522646726	0.31366142255357127	0.37105365804909396	-0.014056882908520335	0.3132723993641842	0.321222460167771	0.14011041005346353	0.4444731166154356	0.5091778263833665	0.29694639114352617	0.45708146835064517	0.6409903151465508	0.5430907674070803	0.3872512669802392	0.4098992636769927	0.5973787710763195	0.38270712435106935	0.23440083290743735	0.5860758990388957	0.378225164064268	0.2345190042747134	0.5938638032439176	0.38589090917820956	0.2836184704745106	0.6196169734279287	0.1522987624173211	0.48644092701998165	0.2967017878180764	0.12891480541833306	0.5954510966219815	0.5412781744376455	0.26365003371459717	0.35354451720992597	0.5727639594002627	0.33285161629130205	0.1661381994169132	0.5722677317850359	0.3179329475328642	0.15297049444091818	0.5797485944485468	0.2768245992542639	0.2473046460515617	0.6234681560567135
203	3.759259259259259	0.3659441239568265	0.7155277837075683	0.7158805926413729	0.3582045472562466	0.6199728239998373	1.0596914260297527	0.3580765333815811	0.7282057395975051	1.4782144554140837	0.3472175865179147	0.4764856853691959	1.4182111825748718	0.40614707468973404	0.5415548697886	1.4369842367514034	0.33480289582642603	0.8320856365284545	1.5621119292521484	0.1776783519619679	0.7428087367339308	0.7380332828970918	0.16920004784830292	0.6402294140075061	1.0807750620549899	0.18419369118906076	0.7033032549979458	1.4557532028888298	0.20216035801654736	0.49768343430297246	1.4308131266968331	0.15792760440554895	0.5380128991899232	1.4279001153800321	0.19328111307188545	0.7681735905711108	1.5142237843832402	0.29238940253421725	0.49649935568806	0.2507416316971583	0.31793718930617093	0.3593911498350125	-0.01140548141943492	0.3132010537106464	0.3207998059110293	0.1402534159616134	0.4446510655811638	0.5107613916332887	0.3042741898578154	0.45260328772732394	0.6395518917445174	0.5435625705572209	0.3867956958118594	0.4097059575094543	0.5979255390558491	0.3834762702915779	0.23472487636081146	0.5893199949334389	0.37814203407577546	0.23347087628468108	0.59323875358144	0.3791318230400147	0.2806916187723906	0.6225200366860063	0.14786104052988075	0.4861692665294571	0.2965735690940356	0.12883028245378772	0.5956774389920415	0.5414446385850318	0.25459743816476144	0.3790789297945775	0.5878310660368025	0.3066131010600435	0.20644903861158562	0.5861244794740458	0.3000318784041188	0.18324282339208955	0.5902447295709313	0.27009340528559117	0.23626220317022836	0.6248229669769958
